<svg xmlns="http://www.w3.org/2000/svg" width="71.868" height="57.685" viewBox="0 0 71.868 57.685">
  <g id="Group_54661" data-name="Group 54661" transform="translate(12080.75 -3439)">
    <g id="Group_42979" data-name="Group 42979" transform="translate(-12080 3439)">
      <g id="Group_1" data-name="Group 1" transform="translate(1.58 0)">
        <path id="Path_1" data-name="Path 1" d="M17.161,45.965h58.87a3.161,3.161,0,1,0,0-6.322h-15.8a3.17,3.17,0,0,1-3.161-3.161,3.1,3.1,0,0,1,3.161-3.161h3.951a3.161,3.161,0,1,0,0-6.322h-40.7a3.161,3.161,0,1,0,0,6.322h5.927a3.17,3.17,0,0,1,3.161,3.161,3.1,3.1,0,0,1-3.161,3.161H17.161a3.161,3.161,0,1,0,0,6.322Z" transform="translate(-14 -27)" fill="#4262F0" opacity="0.15" style="isolation: isolate"/>
        <path id="Path_2" data-name="Path 2" d="M114.856,91h-40.7a3.161,3.161,0,0,0,0,6.322h40.7a3.161,3.161,0,0,0,0-6.322Z" transform="translate(-48.479 -65.713)" fill="#4262F0" opacity="0.15" style="isolation: isolate"/>
        <path id="Path_3" data-name="Path 3" d="M72.1,126.951v-.79A3.17,3.17,0,0,0,68.944,123H19.161A3.17,3.17,0,0,0,16,126.161v.79a3.17,3.17,0,0,0,3.161,3.161H68.944A3.17,3.17,0,0,0,72.1,126.951Z" transform="translate(-15.21 -85.07)" fill="#4262F0" opacity="0.15" style="isolation: isolate"/>
        <path id="Path_4" data-name="Path 4" d="M84.129,157H33.161a3.161,3.161,0,1,0,0,6.322H84.129a3.161,3.161,0,1,0,0-6.322Z" transform="translate(-23.678 -105.637)" fill="#4262F0" opacity="0.15" style="isolation: isolate"/>
      </g>
      <g id="Group_3" data-name="Group 3" transform="translate(0 1.828)">
        <g id="Group_2" data-name="Group 2" transform="translate(11.853 13.976)">
          <path id="Path_5" data-name="Path 5" d="M67.077,109.584h-24.1A1.956,1.956,0,0,1,41,107.647V77.975A1.956,1.956,0,0,1,42.937,76h24.14a1.956,1.956,0,0,1,1.976,1.937v29.671a1.956,1.956,0,0,1-1.937,1.976Z" transform="translate(-40.605 -72.444)" fill="#fff"/>
          <path id="Path_6" data-name="Path 6" d="M69.5,110.188H46.975A1.956,1.956,0,0,1,45,108.252V78.975A1.956,1.956,0,0,1,46.937,77H69.5a1.956,1.956,0,0,1,1.976,1.937v29.276a1.956,1.956,0,0,1-1.937,1.976Z" transform="translate(-43.024 -73.049)" fill="#4262F0" opacity="0.15" style="isolation: isolate"/>
          <path id="Path_7" data-name="Path 7" d="M44.741,109.584H41.975A1.956,1.956,0,0,1,40,107.647V77.975A1.956,1.956,0,0,1,41.937,76h24.93a1.956,1.956,0,0,1,1.976,1.937v29.671a1.956,1.956,0,0,1-1.937,1.976H49.482" transform="translate(-40 -72.444)" fill="none" stroke="#4262F0" stroke-linecap="round" stroke-linejoin="round" stroke-width="1.5"/>
          <line id="Line_1" data-name="Line 1" transform="translate(6.427 37.21)" fill="none" stroke="#4262F0" stroke-linecap="round" stroke-linejoin="round" stroke-width="1.5"/>
          <path id="Path_8" data-name="Path 8" d="M57.383,73.717h0A1.4,1.4,0,0,1,56,72.334V68.383A1.4,1.4,0,0,1,57.383,67h0a1.4,1.4,0,0,1,1.383,1.383v3.951A1.4,1.4,0,0,1,57.383,73.717Z" transform="translate(-49.678 -67)" fill="#fff" stroke="#4262F0" stroke-linecap="round" stroke-linejoin="round" stroke-width="1.5"/>
          <line id="Line_2" data-name="Line 2" x2="28.842" transform="translate(0 8.85)" fill="none" stroke="#4262F0" stroke-linecap="round" stroke-linejoin="round" stroke-width="1.5"/>
          <line id="Line_3" data-name="Line 3" x2="17.671" transform="translate(4.599 19.538)" fill="none" stroke="#4262F0" stroke-linecap="round" stroke-linejoin="round" stroke-width="2" opacity="0.5" style="isolation: isolate"/>
          <line id="Line_4" data-name="Line 4" x2="17.671" transform="translate(4.599 23.804)" fill="none" stroke="#4262F0" stroke-linecap="round" stroke-linejoin="round" stroke-width="2" opacity="0.5" style="isolation: isolate"/>
          <line id="Line_5" data-name="Line 5" x2="6.717" transform="translate(4.741 28.921)" fill="none" stroke="#4262F0" stroke-linecap="round" stroke-linejoin="round" stroke-width="2" opacity="0.5" style="isolation: isolate"/>
        </g>
        <path id="Path_9" data-name="Path 9" d="M102.867,95.164H77.975A1.956,1.956,0,0,1,76,93.227V61.975A1.956,1.956,0,0,1,77.937,60h24.93a1.956,1.956,0,0,1,1.976,1.937V93.188a1.956,1.956,0,0,1-1.937,1.976Z" transform="translate(-49.923 -48.79)" fill="#4262F0" opacity="0.5" style="isolation: isolate"/>
        <circle id="Ellipse_1" data-name="Ellipse 1" cx="1.523" cy="1.523" r="1.523" transform="translate(28.03 0)" fill="none" stroke="#4262F0" stroke-linecap="round" stroke-linejoin="round" stroke-width="1.5"/>
        <circle id="Ellipse_2" data-name="Ellipse 2" cx="1.523" cy="1.523" r="1.523" transform="translate(0 20.718)" fill="none" stroke="#4262F0" stroke-linecap="round" stroke-linejoin="round" stroke-width="1.5"/>
        <ellipse id="Ellipse_3" data-name="Ellipse 3" cx="1.523" cy="1.828" rx="1.523" ry="1.828" transform="translate(61.545 46.311)" fill="none" stroke="#4262F0" stroke-linecap="round" stroke-linejoin="round" stroke-width="1.5"/>
        <path id="Path_10" data-name="Path 10" d="M83.507,49.341h2.371a4.548,4.548,0,0,1,9.087,0h7.9a1.956,1.956,0,0,1,1.976,1.937V82.53a1.956,1.956,0,0,1-1.937,1.976H77.975A1.956,1.956,0,0,1,76,82.568V51.317a1.956,1.956,0,0,1,1.937-1.976h1.619" transform="translate(-49.923 -39.711)" fill="#fff" stroke="#4262F0" stroke-linecap="round" stroke-linejoin="round" stroke-width="1.5"/>
        <line id="Line_6" data-name="Line 6" transform="translate(31.296 9.75)" fill="none" stroke="#4262F0" stroke-linecap="round" stroke-linejoin="round" stroke-width="1.5"/>
        <line id="Line_7" data-name="Line 7" x2="4.875" transform="translate(26.202 47.53)" fill="none" stroke="#4262F0" stroke-linecap="round" stroke-linejoin="round" stroke-width="1.5"/>
        <line id="Line_8" data-name="Line 8" x2="0.609" transform="translate(32.905 47.53)" fill="none" stroke="#4262F0" stroke-linecap="round" stroke-linejoin="round" stroke-width="1.5"/>
        <path id="Path_12" data-name="Path 12" d="M101,148.976h15.8A5.468,5.468,0,0,0,120.755,147" transform="translate(-65.046 -101.416)" fill="none" stroke="#4262F0" stroke-linecap="round" stroke-linejoin="round" stroke-width="1.5"/>
        <ellipse id="Ellipse_4" data-name="Ellipse 4" cx="1.828" cy="1.523" rx="1.828" ry="1.523" transform="translate(38.999 7.922)" fill="none" stroke="#4262F0" stroke-linecap="round" stroke-linejoin="round" stroke-width="1.5"/>
        <path id="Path_14" data-name="Path 14" d="M140.371,55H138a1.956,1.956,0,0,1,1.976,1.937V88.584a1.956,1.956,0,0,1-1.937,1.976h2.332a1.956,1.956,0,0,0,1.976-1.937V56.975A1.956,1.956,0,0,0,140.409,55Z" transform="translate(-87.427 -45.765)" fill="#4262F0" stroke="#707070" stroke-width="1.5" opacity="0.15" style="isolation: isolate"/>
      </g>
    </g>
    <g id="Group_54663" data-name="Group 54663" transform="translate(-12048.011 3459.188)">
      <ellipse id="Ellipse_4034" data-name="Ellipse 4034" cx="8.654" cy="8.654" rx="8.654" ry="8.654" transform="translate(0 0)" fill="#4262F0"/>
      <ellipse id="Ellipse_4035" data-name="Ellipse 4035" cx="7.212" cy="7.212" rx="7.212" ry="7.212" transform="translate(1.443 1.442)" fill="#fff"/>
      <path id="Path_144626" data-name="Path 144626" d="M46.129,174.781a.65.65,0,0,1-.461-.191l-3.477-3.477a.652.652,0,1,1,.922-.922l3.016,3.016,3.016-3.016a.652.652,0,1,1,.922.922L46.59,174.59A.65.65,0,0,1,46.129,174.781Z" transform="translate(-37.475 -161.038)" fill="#4262F0"/>
      <path id="Line_20656" data-name="Line 20656" d="M-5.348,2.412c-.36,0-.652-.131-.652-.293V-5.707C-6-5.869-5.708-6-5.348-6s.652.131.652.293V2.119C-4.7,2.281-4.988,2.412-5.348,2.412Z" transform="translate(14.003 10.609)" fill="#4262F0"/>
    </g>
  </g>
</svg>
