<svg xmlns="http://www.w3.org/2000/svg" xmlns:xlink="http://www.w3.org/1999/xlink" width="50" height="50" viewBox="0 0 50 50">
  <defs>
    <clipPath id="clip-path">
      <rect width="50" height="50" fill="none"/>
    </clipPath>
  </defs>
  <g id="Repeat_Grid_1109" data-name="Repeat Grid 1109" clip-path="url(#clip-path)">
    <g id="Group_173018" data-name="Group 173018" transform="translate(-4158 -1328)">
      <rect id="Rectangle_29975" data-name="Rectangle 29975" width="50" height="50" rx="8" transform="translate(4158 1328)" fill="#fff"/>
      <g id="Group_172990" data-name="Group 172990" transform="translate(4165.825 1336.119)">
        <path id="Path_144809" data-name="Path 144809" d="M29.9,28.5H15.447a1.253,1.253,0,0,1-1.271-1.271,1.367,1.367,0,0,1,1.271-1.271H29.9a1.253,1.253,0,0,1,1.271,1.271A1.367,1.367,0,0,1,29.9,28.5Zm0-10.009H15.447a1.253,1.253,0,0,1-1.271-1.271,1.367,1.367,0,0,1,1.271-1.271H29.9a1.253,1.253,0,0,1,1.271,1.271A1.367,1.367,0,0,1,29.9,18.489Zm0-10.009H15.447a1.271,1.271,0,0,1,0-2.542H29.9A1.253,1.253,0,0,1,31.175,7.21,1.367,1.367,0,0,1,29.9,8.481Z" transform="translate(0)" fill="#ff7307"/>
        <path id="Path_144810" data-name="Path 144810" d="M16.649,12.918l-1.921,1.922,1.921,1.922a.981.981,0,1,1-1.386,1.386l-1.922-1.921-1.922,1.921a.981.981,0,0,1-1.386-1.386l1.921-1.922-1.921-1.922a.981.981,0,0,1,1.386-1.386l1.922,1.921,1.922-1.921a.981.981,0,0,1,1.386,1.386Z" transform="translate(-6.053 -8.04)" fill="#ff7307"/>
        <path id="Path_144811" data-name="Path 144811" d="M16.649,12.918l-1.921,1.922,1.921,1.922a.981.981,0,1,1-1.386,1.386l-1.922-1.921-1.922,1.921a.981.981,0,0,1-1.386-1.386l1.921-1.922-1.921-1.922a.981.981,0,0,1,1.386-1.386l1.922,1.921,1.922-1.921a.981.981,0,0,1,1.386,1.386Z" transform="translate(-6.053 2.353)" fill="#ff7307"/>
        <path id="Path_144812" data-name="Path 144812" d="M16.649,12.918l-1.921,1.922,1.921,1.922a.981.981,0,1,1-1.386,1.386l-1.922-1.921-1.922,1.921a.981.981,0,0,1-1.386-1.386l1.921-1.922-1.921-1.922a.981.981,0,0,1,1.386-1.386l1.922,1.921,1.922-1.921a.981.981,0,0,1,1.386,1.386Z" transform="translate(-6.053 12.353)" fill="#ff7307"/>
      </g>
    </g>
  </g>
</svg>
