<svg xmlns="http://www.w3.org/2000/svg" width="50" height="50" viewBox="0 0 50 50">
  <g id="Group_172991" data-name="Group 172991" transform="translate(-4158 -1328)">
    <rect id="Rectangle_29975" data-name="Rectangle 29975" width="50" height="50" rx="8" transform="translate(4158 1328)" fill="#fff"/>
    <g id="Group_172990" data-name="Group 172990" transform="translate(4165.825 1336.119)">
      <path id="Path_144809" data-name="Path 144809" d="M29.9,28.5H15.447a1.253,1.253,0,0,1-1.271-1.271,1.367,1.367,0,0,1,1.271-1.271H29.9a1.253,1.253,0,0,1,1.271,1.271A1.367,1.367,0,0,1,29.9,28.5Zm0-10.009H15.447a1.253,1.253,0,0,1-1.271-1.271,1.367,1.367,0,0,1,1.271-1.271H29.9a1.253,1.253,0,0,1,1.271,1.271A1.367,1.367,0,0,1,29.9,18.489Zm0-10.009H15.447a1.271,1.271,0,0,1,0-2.542H29.9A1.253,1.253,0,0,1,31.175,7.21,1.367,1.367,0,0,1,29.9,8.481ZM5.915,10.546a2.258,2.258,0,0,1-.953-.318L3.532,8.8a1.45,1.45,0,0,1,0-1.906,1.446,1.446,0,0,1,1.906,0l.477.477L9.252,4.032a1.446,1.446,0,0,1,1.906,0,1.446,1.446,0,0,1,0,1.906L6.869,10.228A2.258,2.258,0,0,1,5.915,10.546Zm0,10.009a2.258,2.258,0,0,1-.953-.318l-1.43-1.43a1.446,1.446,0,0,1,0-1.906,1.446,1.446,0,0,1,1.906,0l.477.477,3.336-3.336a1.446,1.446,0,0,1,1.906,0,1.446,1.446,0,0,1,0,1.906L6.869,20.237a2.258,2.258,0,0,1-.953.318Zm0,9.532a2.258,2.258,0,0,1-.953-.318l-1.43-1.43a1.446,1.446,0,0,1,0-1.906,1.446,1.446,0,0,1,1.906,0l.477.477,3.336-3.336a1.446,1.446,0,0,1,1.906,0,1.446,1.446,0,0,1,0,1.906L6.869,29.769a2.258,2.258,0,0,1-.953.318Z" transform="translate(0)" fill="#31b491"/>
    </g>
  </g>
</svg>
