<svg xmlns="http://www.w3.org/2000/svg" width="50" height="50" viewBox="0 0 50 50">
  <g id="Group_172987" data-name="Group 172987" transform="translate(-4158 -1328)">
    <rect id="Rectangle_29975" data-name="Rectangle 29975" width="50" height="50" rx="8" transform="translate(4158 1328)" fill="#fff"/>
    <g id="Group_172985" data-name="Group 172985" transform="translate(4167 1337)">
      <path id="Path_144808" data-name="Path 144808" d="M5,14.563h6.562a3,3,0,0,0,3-3V5a3,3,0,0,0-3-3H5A3,3,0,0,0,2,5v6.563A3,3,0,0,0,5,14.563ZM4,5A1,1,0,0,1,5,4h6.562a1,1,0,0,1,1,1v6.563a1,1,0,0,1-1,1H5a1,1,0,0,1-1-1ZM27,2H20.437a3,3,0,0,0-3,3v6.563a3,3,0,0,0,3,3H27a3,3,0,0,0,3-3V5A3,3,0,0,0,27,2Zm1,9.563a1,1,0,0,1-1,1H20.437a1,1,0,0,1-1-1V5a1,1,0,0,1,1-1H27a1,1,0,0,1,1,1ZM5,30h6.562a3,3,0,0,0,3-3V20.437a3,3,0,0,0-3-3H5a3,3,0,0,0-3,3V27A3,3,0,0,0,5,30ZM4,20.437a1,1,0,0,1,1-1h6.562a1,1,0,0,1,1,1V27a1,1,0,0,1-1,1H5a1,1,0,0,1-1-1ZM29,28H18.437a1,1,0,0,0,0,2H29a1,1,0,0,0,0-2Zm0-10.562H18.437a1,1,0,0,0,0,2H29a1,1,0,0,0,0-2Zm0,5.281H18.437a1,1,0,0,0,0,2H29a1,1,0,0,0,0-2Z" fill="#4262f0"/>
    </g>
  </g>
</svg>
